<svg xmlns="http://www.w3.org/2000/svg" width="1400" height="1200" viewBox="0 0 1400 1200"><rect width="1400" height="1200" fill="#F8FAFC"/><rect x="35" y="35" width="1330" height="50" rx="12" fill="#F8FAFC" stroke="#CBD5E1" stroke-width="1.5"/><text x="700" y="50" text-anchor="middle" dominant-baseline="central" font-family="Arial" font-size="14" font-weight="bold" fill="#0F172A">DevSecOps Workflow 2026</text><text x="700" y="74" text-anchor="middle" dominant-baseline="central" font-family="Arial" font-size="11" fill="#0F172A" opacity="0.85">Secure delivery with cloud-native automation and continuous compliance</text><rect x="450" y="35" width="160" height="75" rx="12" fill="#4F46C6" stroke="#3730A3" stroke-width="1.5"/><text x="530" y="62.5" text-anchor="middle" dominant-baseline="central" font-family="Arial" font-size="14" font-weight="bold" fill="#FFFFFF">Secure Planning</text><text x="530" y="86.5" text-anchor="middle" dominant-baseline="central" font-family="Arial" font-size="11" fill="#FFFFFF" opacity="0.85">Threat modeling, policy-as-code, architecture review</text><polyline points="530,110 530,125 530,135 530,135 530,120 530,135" fill="none" stroke="#64748B" stroke-width="1.5" stroke-dasharray="none" marker-end="url(#arrow)"/><rect x="455" y="135" width="150" height="85" rx="12" fill="#D97706" stroke="#B45309" stroke-width="1.5"/><text x="530" y="167.5" text-anchor="middle" dominant-baseline="central" font-family="Arial" font-size="14" font-weight="bold" fill="#FFFFFF">Secure Build</text><text x="530" y="191.5" text-anchor="middle" dominant-baseline="central" font-family="Arial" font-size="11" fill="#FFFFFF" opacity="0.85">SCA, SBOM, and binary signing in CI/CD</text><polyline points="530,220 530,235 530,245 870,245 870,20 870,35" fill="none" stroke="#64748B" stroke-width="1.5" stroke-dasharray="none" marker-end="url(#arrow)"/><rect x="790" y="35" width="160" height="75" rx="12" fill="#4F46C6" stroke="#3730A3" stroke-width="1.5"/><text x="870" y="62.5" text-anchor="middle" dominant-baseline="central" font-family="Arial" font-size="14" font-weight="bold" fill="#FFFFFF">Secure Deployment</text><text x="870" y="86.5" text-anchor="middle" dominant-baseline="central" font-family="Arial" font-size="11" fill="#FFFFFF" opacity="0.85">Infrastructure as code, runtime hardening, zero trust</text><polyline points="870,110 870,125 870,135 870,135 870,120 870,135" fill="none" stroke="#64748B" stroke-width="1.5" stroke-dasharray="none" marker-end="url(#arrow)"/><rect x="800" y="135" width="140" height="80" rx="12" fill="#1E40AF" stroke="#1E3A8A" stroke-width="1.5"/><text x="870" y="165" text-anchor="middle" dominant-baseline="central" font-family="Arial" font-size="14" font-weight="bold" fill="#FFFFFF">Continuous Monitoring</text><text x="870" y="189" text-anchor="middle" dominant-baseline="central" font-family="Arial" font-size="11" fill="#FFFFFF" opacity="0.85">Risk dashboards, anomaly detection, drift control</text><polyline points="870,215 915,230 915,240 1255,240 1255,20 1210,35" fill="none" stroke="#64748B" stroke-width="1.5" stroke-dasharray="none" marker-end="url(#arrow)"/><rect x="1130" y="35" width="160" height="85" rx="12" fill="#5B9F3A" stroke="#3D7A25" stroke-width="1.5"/><text x="1210" y="67.5" text-anchor="middle" dominant-baseline="central" font-family="Arial" font-size="14" font-weight="bold" fill="#FFFFFF">Adaptive Feedback</text><text x="1210" y="91.5" text-anchor="middle" dominant-baseline="central" font-family="Arial" font-size="11" fill="#FFFFFF" opacity="0.85">AI-assisted remediation, compliance orchestration</text><polyline points="1210,120 1165,135 1165,145 485,145 485,20 530,35" fill="none" stroke="#64748B" stroke-width="1.5" stroke-dasharray="6,4" marker-end="url(#arrow)"/><rect x="1145" y="145" width="130" height="100" rx="12" fill="#A63A1E" stroke="#7F2D17" stroke-width="1.5"/><text x="1210" y="185" text-anchor="middle" dominant-baseline="central" font-family="Arial" font-size="14" font-weight="bold" fill="#FFFFFF">Governance Review</text><text x="1210" y="209" text-anchor="middle" dominant-baseline="central" font-family="Arial" font-size="11" fill="#FFFFFF" opacity="0.85">Stakeholder approval and risk acceptance</text><polyline points="1210,245 1210,260 1210,270 870,270 870,20 870,35" fill="none" stroke="#64748B" stroke-width="1.5" stroke-dasharray="2,3" marker-end="url(#arrow)"/><defs><marker id="arrow" markerWidth="8" markerHeight="8" refX="6" refY="3" orient="auto"><path d="M0,0 L0,6 L8,3 z" fill="#64748B"/></marker></defs></svg>