<svg xmlns="http://www.w3.org/2000/svg" width="1400" height="2200" viewBox="0 0 1400 2200"><rect width="1400" height="2200" fill="#F8FAFC"/><rect x="40" y="40" width="1320" height="60" rx="12" fill="#F8FAFC" stroke="#CBD5E1" stroke-width="1.5"/><text x="700" y="60" text-anchor="middle" dominant-baseline="central" font-family="Arial" font-size="14" font-weight="bold" fill="#0F172A">Plan &amp; Develop</text><text x="700" y="84" text-anchor="middle" dominant-baseline="central" font-family="Arial" font-size="11" fill="#0F172A" opacity="0.85">Shift-left security from the start</text><rect x="40" y="140" width="200" height="40" rx="12" fill="#A63A1E" stroke="#7F2D17" stroke-width="1.5"/><text x="140" y="150" text-anchor="middle" dominant-baseline="central" font-family="Arial" font-size="14" font-weight="bold" fill="#FFFFFF">Developer Workflow</text><text x="140" y="174" text-anchor="middle" dominant-baseline="central" font-family="Arial" font-size="11" fill="#FFFFFF" opacity="0.85">Initiate feature development &amp; code changes</text><polyline points="140,180 140,200 130,200 130,220" fill="none" stroke="#64748B" stroke-width="1.5" stroke-dasharray="none" marker-end="url(#arrow)"/><rect x="40" y="220" width="180" height="100" rx="12" fill="#00897B" stroke="#00695C" stroke-width="1.5"/><text x="130" y="260" text-anchor="middle" dominant-baseline="central" font-family="Arial" font-size="14" font-weight="bold" fill="#FFFFFF">AI Code Security Assistant</text><text x="130" y="284" text-anchor="middle" dominant-baseline="central" font-family="Arial" font-size="11" fill="#FFFFFF" opacity="0.85">Real-time security suggestions and best practices</text><polyline points="130,320 130,340 140,340 140,360" fill="none" stroke="#64748B" stroke-width="1.5" stroke-dasharray="none" marker-end="url(#arrow)"/><rect x="40" y="360" width="200" height="80" rx="12" fill="#4F46C6" stroke="#3730A3" stroke-width="1.5"/><text x="140" y="390" text-anchor="middle" dominant-baseline="central" font-family="Arial" font-size="14" font-weight="bold" fill="#FFFFFF">Source Code Management</text><text x="140" y="414" text-anchor="middle" dominant-baseline="central" font-family="Arial" font-size="11" fill="#FFFFFF" opacity="0.85">Version control for application code and configurations</text><polyline points="140,440 140,460 130,460 130,480" fill="none" stroke="#64748B" stroke-width="1.5" stroke-dasharray="none" marker-end="url(#arrow)"/><rect x="40" y="480" width="180" height="100" rx="12" fill="#D97706" stroke="#B45309" stroke-width="1.5"/><text x="130" y="520" text-anchor="middle" dominant-baseline="central" font-family="Arial" font-size="14" font-weight="bold" fill="#FFFFFF">SAST &amp; Security Linting</text><text x="130" y="544" text-anchor="middle" dominant-baseline="central" font-family="Arial" font-size="11" fill="#FFFFFF" opacity="0.85">Automated code analysis for vulnerabilities pre-commit</text><polyline points="130,580 160,360 530,360 500,140" fill="none" stroke="#64748B" stroke-width="1.5" stroke-dasharray="none" marker-end="url(#arrow)"/><rect x="40" y="40" width="1320" height="60" rx="12" fill="#F8FAFC" stroke="#CBD5E1" stroke-width="1.5"/><text x="700" y="60" text-anchor="middle" dominant-baseline="central" font-family="Arial" font-size="14" font-weight="bold" fill="#0F172A">Build &amp; Secure</text><text x="700" y="84" text-anchor="middle" dominant-baseline="central" font-family="Arial" font-size="11" fill="#0F172A" opacity="0.85">Automated security into CI/CD pipelines</text><rect x="400" y="140" width="200" height="80" rx="12" fill="#4F46C6" stroke="#3730A3" stroke-width="1.5"/><text x="500" y="170" text-anchor="middle" dominant-baseline="central" font-family="Arial" font-size="14" font-weight="bold" fill="#FFFFFF">CI Pipeline Orchestration</text><text x="500" y="194" text-anchor="middle" dominant-baseline="central" font-family="Arial" font-size="11" fill="#FFFFFF" opacity="0.85">Automated build, test, and scan initiation</text><polyline points="500,220 500,240 490,240 490,260" fill="none" stroke="#64748B" stroke-width="1.5" stroke-dasharray="none" marker-end="url(#arrow)"/><rect x="400" y="260" width="180" height="100" rx="12" fill="#D97706" stroke="#B45309" stroke-width="1.5"/><text x="490" y="300" text-anchor="middle" dominant-baseline="central" font-family="Arial" font-size="14" font-weight="bold" fill="#FFFFFF">DAST &amp; SCA Scan</text><text x="490" y="324" text-anchor="middle" dominant-baseline="central" font-family="Arial" font-size="11" fill="#FFFFFF" opacity="0.85">Dynamic analysis &amp; open-source component risk assessment</text><polyline points="490,360 490,380 490,380 490,400" fill="none" stroke="#64748B" stroke-width="1.5" stroke-dasharray="none" marker-end="url(#arrow)"/><rect x="400" y="400" width="180" height="100" rx="12" fill="#D97706" stroke="#B45309" stroke-width="1.5"/><text x="490" y="440" text-anchor="middle" dominant-baseline="central" font-family="Arial" font-size="14" font-weight="bold" fill="#FFFFFF">IaC &amp; Configuration Scan</text><text x="490" y="464" text-anchor="middle" dominant-baseline="central" font-family="Arial" font-size="11" fill="#FFFFFF" opacity="0.85">Automated scanning of Infrastructure as Code for misconfigurations</text><polyline points="490,500 490,520 490,520 490,540" fill="none" stroke="#64748B" stroke-width="1.5" stroke-dasharray="none" marker-end="url(#arrow)"/><rect x="400" y="540" width="180" height="100" rx="12" fill="#D97706" stroke="#B45309" stroke-width="1.5"/><text x="490" y="580" text-anchor="middle" dominant-baseline="central" font-family="Arial" font-size="14" font-weight="bold" fill="#FFFFFF">Container Image Security</text><text x="490" y="604" text-anchor="middle" dominant-baseline="central" font-family="Arial" font-size="11" fill="#FFFFFF" opacity="0.85">Vulnerability scanning for Docker images and registries</text><polyline points="490,640 490,660 500,660 500,680" fill="none" stroke="#64748B" stroke-width="1.5" stroke-dasharray="none" marker-end="url(#arrow)"/><rect x="400" y="680" width="200" height="80" rx="12" fill="#4F46C6" stroke="#3730A3" stroke-width="1.5"/><text x="500" y="710" text-anchor="middle" dominant-baseline="central" font-family="Arial" font-size="14" font-weight="bold" fill="#FFFFFF">Secure Artifact Repository</text><text x="500" y="734" text-anchor="middle" dominant-baseline="central" font-family="Arial" font-size="11" fill="#FFFFFF" opacity="0.85">Store trusted build artifacts and secure images</text><polyline points="500,760 500,780 460,780 460,800" fill="none" stroke="#64748B" stroke-width="1.5" stroke-dasharray="none" marker-end="url(#arrow)"/><rect x="400" y="800" width="120" height="120" rx="12" fill="#A63A1E" stroke="#7F2D17" stroke-width="1.5"/><text x="460" y="850" text-anchor="middle" dominant-baseline="central" font-family="Arial" font-size="14" font-weight="bold" fill="#FFFFFF">Critical Security Review</text><text x="460" y="874" text-anchor="middle" dominant-baseline="central" font-family="Arial" font-size="11" fill="#FFFFFF" opacity="0.85">Human gate for high-risk vulnerabilities or policy exceptions</text><polyline points="460,920 460,530 860,530 860,140" fill="none" stroke="#64748B" stroke-width="1.5" stroke-dasharray="none" marker-end="url(#arrow)"/><rect x="40" y="40" width="1320" height="60" rx="12" fill="#F8FAFC" stroke="#CBD5E1" stroke-width="1.5"/><text x="700" y="60" text-anchor="middle" dominant-baseline="central" font-family="Arial" font-size="14" font-weight="bold" fill="#0F172A">Deploy &amp; Enforce</text><text x="700" y="84" text-anchor="middle" dominant-baseline="central" font-family="Arial" font-size="11" fill="#0F172A" opacity="0.85">Runtime protection and continuous policy enforcement</text><rect x="760" y="140" width="200" height="80" rx="12" fill="#4F46C6" stroke="#3730A3" stroke-width="1.5"/><text x="860" y="170" text-anchor="middle" dominant-baseline="central" font-family="Arial" font-size="14" font-weight="bold" fill="#FFFFFF">CD Pipeline Orchestration</text><text x="860" y="194" text-anchor="middle" dominant-baseline="central" font-family="Arial" font-size="11" fill="#FFFFFF" opacity="0.85">Automated, secure deployment to cloud environments</text><polyline points="860,220 860,240 850,240 850,260" fill="none" stroke="#64748B" stroke-width="1.5" stroke-dasharray="none" marker-end="url(#arrow)"/><rect x="760" y="260" width="180" height="100" rx="12" fill="#D97706" stroke="#B45309" stroke-width="1.5"/><text x="850" y="300" text-anchor="middle" dominant-baseline="central" font-family="Arial" font-size="14" font-weight="bold" fill="#FFFFFF">Policy as Code Enforcement</text><text x="850" y="324" text-anchor="middle" dominant-baseline="central" font-family="Arial" font-size="11" fill="#FFFFFF" opacity="0.85">Automated security policy validation during deployment</text><polyline points="850,360 850,380 850,380 850,400" fill="none" stroke="#64748B" stroke-width="1.5" stroke-dasharray="none" marker-end="url(#arrow)"/><rect x="760" y="400" width="180" height="100" rx="12" fill="#D97706" stroke="#B45309" stroke-width="1.5"/><text x="850" y="440" text-anchor="middle" dominant-baseline="central" font-family="Arial" font-size="14" font-weight="bold" fill="#FFFFFF">Runtime Application Protection</text><text x="850" y="464" text-anchor="middle" dominant-baseline="central" font-family="Arial" font-size="11" fill="#FFFFFF" opacity="0.85">Protect applications from attacks in real-time (RASP)</text><polyline points="850,500 850,520 860,520 860,540" fill="none" stroke="#64748B" stroke-width="1.5" stroke-dasharray="none" marker-end="url(#arrow)"/><rect x="760" y="540" width="200" height="80" rx="12" fill="#4F46C6" stroke="#3730A3" stroke-width="1.5"/><text x="860" y="570" text-anchor="middle" dominant-baseline="central" font-family="Arial" font-size="14" font-weight="bold" fill="#FFFFFF">Cloud Environment Deployment</text><text x="860" y="594" text-anchor="middle" dominant-baseline="central" font-family="Arial" font-size="11" fill="#FFFFFF" opacity="0.85">Secure provisioning and configuration of cloud infrastructure</text><polyline points="860,620 860,640 850,640 850,660" fill="none" stroke="#64748B" stroke-width="1.5" stroke-dasharray="none" marker-end="url(#arrow)"/><rect x="760" y="660" width="180" height="100" rx="12" fill="#D97706" stroke="#B45309" stroke-width="1.5"/><text x="850" y="700" text-anchor="middle" dominant-baseline="central" font-family="Arial" font-size="14" font-weight="bold" fill="#FFFFFF">Cloud Network Security Automation</text><text x="850" y="724" text-anchor="middle" dominant-baseline="central" font-family="Arial" font-size="11" fill="#FFFFFF" opacity="0.85">Automated WAF, API Gateway, and segmentation enforcement</text><polyline points="850,760 880,450 1230,450 1200,140" fill="none" stroke="#64748B" stroke-width="1.5" stroke-dasharray="none" marker-end="url(#arrow)"/><rect x="40" y="40" width="1320" height="60" rx="12" fill="#F8FAFC" stroke="#CBD5E1" stroke-width="1.5"/><text x="700" y="60" text-anchor="middle" dominant-baseline="central" font-family="Arial" font-size="14" font-weight="bold" fill="#0F172A">Monitor &amp; Optimize</text><text x="700" y="84" text-anchor="middle" dominant-baseline="central" font-family="Arial" font-size="11" fill="#0F172A" opacity="0.85">Continuous risk monitoring and feedback loops</text><rect x="1120" y="140" width="160" height="90" rx="12" fill="#1E40AF" stroke="#1E3A8A" stroke-width="1.5"/><text x="1200" y="175" text-anchor="middle" dominant-baseline="central" font-family="Arial" font-size="14" font-weight="bold" fill="#FFFFFF">Real-time Threat Detection</text><text x="1200" y="199" text-anchor="middle" dominant-baseline="central" font-family="Arial" font-size="11" fill="#FFFFFF" opacity="0.85">Monitor for active threats and anomalous behavior</text><polyline points="1200,230 1200,250 1210,250 1210,270" fill="none" stroke="#64748B" stroke-width="1.5" stroke-dasharray="none" marker-end="url(#arrow)"/><rect x="1120" y="270" width="180" height="100" rx="12" fill="#D97706" stroke="#B45309" stroke-width="1.5"/><text x="1210" y="310" text-anchor="middle" dominant-baseline="central" font-family="Arial" font-size="14" font-weight="bold" fill="#FFFFFF">CSPM &amp; Cloud Workload Protection</text><text x="1210" y="334" text-anchor="middle" dominant-baseline="central" font-family="Arial" font-size="11" fill="#FFFFFF" opacity="0.85">Continuous posture management and workload security</text><polyline points="1210,370 1210,390 1210,390 1210,410" fill="none" stroke="#64748B" stroke-width="1.5" stroke-dasharray="none" marker-end="url(#arrow)"/><rect x="1120" y="410" width="180" height="100" rx="12" fill="#D97706" stroke="#B45309" stroke-width="1.5"/><text x="1210" y="450" text-anchor="middle" dominant-baseline="central" font-family="Arial" font-size="14" font-weight="bold" fill="#FFFFFF">SIEM &amp; SOAR Integration</text><text x="1210" y="474" text-anchor="middle" dominant-baseline="central" font-family="Arial" font-size="11" fill="#FFFFFF" opacity="0.85">Centralized logging, incident response, and automation</text><polyline points="1210,510 1210,530 1200,530 1200,550" fill="none" stroke="#64748B" stroke-width="1.5" stroke-dasharray="none" marker-end="url(#arrow)"/><rect x="1120" y="550" width="160" height="90" rx="12" fill="#1E40AF" stroke="#1E3A8A" stroke-width="1.5"/><text x="1200" y="585" text-anchor="middle" dominant-baseline="central" font-family="Arial" font-size="14" font-weight="bold" fill="#FFFFFF">Continuous Compliance Dashboard</text><text x="1200" y="609" text-anchor="middle" dominant-baseline="central" font-family="Arial" font-size="11" fill="#FFFFFF" opacity="0.85">Real-time compliance status and audit readiness</text><polyline points="1200,640 1200,660 1230,660 1230,680" fill="none" stroke="#64748B" stroke-width="1.5" stroke-dasharray="none" marker-end="url(#arrow)"/><rect x="1120" y="680" width="220" height="100" rx="12" fill="#A63A1E" stroke="#7F2D17" stroke-width="1.5"/><text x="1230" y="720" text-anchor="middle" dominant-baseline="central" font-family="Arial" font-size="14" font-weight="bold" fill="#FFFFFF">Risk &amp; Vulnerability Remediation</text><text x="1230" y="744" text-anchor="middle" dominant-baseline="central" font-family="Arial" font-size="11" fill="#FFFFFF" opacity="0.85">Automated ticketing and actionable insights for developers</text><polyline points="1230,780 1200,460 110,460 140,140" fill="none" stroke="#64748B" stroke-width="1.5" stroke-dasharray="6,4" marker-end="url(#arrow)"/><defs><marker id="arrow" markerWidth="8" markerHeight="8" refX="6" refY="3" orient="auto"><path d="M0,0 L0,6 L8,3 z" fill="#64748B"/></marker></defs></svg>